Coordinates
version=1
nRows=10
nColumns=63
inDegrees=yes

Units are S.I. units (second, meters, Newtons, ...)
If the header above contains a line with 'inDegrees', this indicates whether rotational values are in degrees (yes) or radians (no).

endheader
time	pelvis_tilt	pelvis_list	pelvis_rotation	pelvis_tx	pelvis_ty	pelvis_tz	hip_flexion_r	hip_adduction_r	hip_rotation_r	knee_angle_r	knee_angle_r_beta	ankle_angle_r	subtalar_angle_r	mtp_angle_r	hip_flexion_l	hip_adduction_l	hip_rotation_l	knee_angle_l	knee_angle_l_beta	ankle_angle_l	subtalar_angle_l	mtp_angle_l	L5_S1_Flex_Ext	L5_S1_Lat_Bending	L5_S1_axial_rotation	L4_L5_Flex_Ext	L4_L5_Lat_Bending	L4_L5_axial_rotation	L3_L4_Flex_Ext	L3_L4_Lat_Bending	L3_L4_axial_rotation	L2_L3_Flex_Ext	L2_L3_Lat_Bending	L2_L3_axial_rotation	L1_L2_Flex_Ext	L1_L2_Lat_Bending	L1_L2_axial_rotation	L1_T12_Flex_Ext	L1_T12_Lat_Bending	L1_T12_axial_rotation	Abs_r3	Abs_r2	Abs_r1	Abs_t1	Abs_t2	neck_flexion	neck_bending	neck_rotation	arm_flex_r	arm_add_r	arm_rot_r	elbow_flex_r	pro_sup_r	wrist_flex_r	wrist_dev_r	arm_flex_l	arm_add_l	arm_rot_l	elbow_flex_l	pro_sup_l	wrist_flex_l	wrist_dev_l
      2.89830508	     -1.40887654	      1.17202082	     92.54721181	      0.21176972	      0.79238524	      0.66861590	     -4.46161494	      4.87657799	      2.93348914	      8.14972325	      0.14223950	     15.94320588	    -14.49989108	      0.00000000	     -4.16641818	     -4.43899355	      1.82737162	      4.24091340	      0.07401790	     27.09086061	      3.31298778	      0.00000000	      0.19734401	     -0.14955559	     -1.10894968	      0.36648757	     -0.19890894	     -1.17825904	      0.32421648	     -0.36362946	     -1.17825904	      0.22554447	     -0.36362946	     -0.97033097	      0.18325365	     -0.30497376	     -0.90102162	      0.11276237	     -0.23166161	     -0.83171226	      1.40960855	     -1.69180276	     -6.16764545	      0.00000000	      0.00000000	     17.09424991	      3.25330307	      5.29666877	     14.67155024	    -17.80015012	     92.58926973	     34.93837920	     84.52112682	      6.73830839	     12.15221612	      5.31034359	    -20.44589097	     69.17135209	     29.93221594	     85.21196175	      9.94517691	      8.36976349
      2.91525424	     -1.30277881	      0.72462532	     92.53117364	      0.21174590	      0.79184749	      0.66938762	     -4.13193561	      4.93305161	      3.05342304	      7.77085400	      0.13562699	     15.77500634	    -14.34412342	      0.00000000	     -3.75681839	     -4.51891365	      1.82785507	      3.92786982	      0.06855426	     26.48084086	      3.35754239	      0.00000000	      0.19926144	     -0.15026954	     -1.09465748	      0.37004843	     -0.19985849	     -1.16307357	      0.32736663	     -0.36536537	     -1.16307357	      0.22773590	     -0.36536537	     -0.95782529	      0.18503418	     -0.30642965	     -0.88940920	      0.11385799	     -0.23276752	     -0.82099311	      1.42330457	     -1.69987912	     -6.08815649	      0.00000000	      0.00000000	     17.06804712	      2.69613815	      5.31371415	     14.51587209	    -17.76308169	     92.23386301	     34.91099116	     84.37833136	      6.62748476	     12.02810310	      5.09446308	    -20.59158939	     69.19073314	     30.03546350	     85.12160258	      9.77075223	      8.06649380
      2.93220339	     -1.18410291	      0.26052918	     92.38395432	      0.21176599	      0.79142997	      0.66950148	     -3.93985450	      4.99034545	      3.09917640	      7.14925050	      0.12477796	     15.52519939	    -13.92765103	      0.00000000	     -3.48842863	     -4.57847453	      1.88266073	      3.42575656	      0.05979073	     26.17483149	      3.28094149	      0.00000000	      0.21485873	     -0.14601365	     -1.01159733	      0.39901415	     -0.19419816	     -1.07482216	      0.35299141	     -0.35501760	     -1.07482216	      0.24556205	     -0.35501760	     -0.88514766	      0.19951782	     -0.29775104	     -0.82192283	      0.12277028	     -0.22617515	     -0.75869800	      1.53471445	     -1.65173566	     -5.62620085	      0.00000000	      0.00000000	     16.61786636	      1.65325512	      4.55120028	     13.48588989	    -17.88900582	     89.32767660	     34.71819864	     83.49049223	      7.12664779	     12.15473176	      4.64066209	    -20.54121866	     69.24524281	     29.74775942	     85.16170746	      7.29311600	      5.91768676
      2.94915254	     -1.11241690	     -0.13673051	     92.32208124	      0.21196829	      0.79113004	      0.66999029	     -3.84322013	      5.03776444	      3.22184771	      6.43234108	      0.11226553	     15.18960328	    -13.64230632	      0.00000000	     -3.17169382	     -4.62636226	      1.95931687	      3.08125191	      0.05377799	     25.87361769	      3.35376160	      0.00000000	      0.21451700	     -0.15446324	     -0.94157407	      0.39837951	     -0.20543610	     -1.00042245	      0.35242997	     -0.37556191	     -1.00042245	      0.24517147	     -0.37556191	     -0.82387731	      0.19920048	     -0.31498143	     -0.76502893	      0.12257501	     -0.23926355	     -0.70618055	      1.53227344	     -1.74731903	     -5.23675249	      0.00000000	      0.00000000	     15.84174353	      0.83960323	      3.38694107	     13.04534986	    -17.72830686	     88.40717045	     34.38074423	     82.61457069	      6.92209049	     11.62711784	      3.96977163	    -20.57308443	     67.73776174	     29.68144600	     84.68651728	      5.76202711	      4.81094357
      2.96610169	     -1.08150283	     -0.49228288	     92.26297231	      0.21224288	      0.79083419	      0.67049514	     -3.75546136	      5.04393684	      3.24609455	      5.78305945	      0.10093343	     14.99782827	    -13.21205859	      0.00000000	     -2.85207683	     -4.63462294	      2.10967315	      2.85927449	      0.04990375	     25.72390443	      3.38536695	      0.00000000	      0.20991757	     -0.16554857	     -0.92231884	      0.38983792	     -0.22017959	     -0.97996377	      0.34487358	     -0.40251478	     -0.97996377	      0.23991479	     -0.40251478	     -0.80702899	      0.19492946	     -0.33758663	     -0.74938406	      0.11994690	     -0.25643473	     -0.69173913	      1.49942022	     -1.87271848	     -5.12966071	      0.00000000	      0.00000000	     14.70018684	      0.32315908	      2.77142215	     13.00561437	    -17.39350268	     88.35366960	     33.92368752	     80.85445413	      7.31401991	     11.39466417	      2.54186239	    -20.70681758	     63.88156048	     30.22394063	     85.32084963	      3.22188716	      4.01186014
      2.98305085	     -1.07660060	     -0.64315710	     92.22492537	      0.21258200	      0.79080648	      0.67127854	     -3.81343723	      5.05640528	      3.24398387	      5.20974659	      0.09092723	     14.87503460	    -13.09115728	      0.00000000	     -2.67315407	     -4.66011753	      2.42375439	      2.81195720	      0.04907791	     25.60359403	      3.56771489	      0.00000000	      0.17816896	     -0.18128831	     -0.81201553	      0.33087757	     -0.24111345	     -0.86276650	      0.29271378	     -0.44078439	     -0.86276650	      0.20362930	     -0.44078439	     -0.71051359	      0.16544769	     -0.36968311	     -0.65976262	      0.10180574	     -0.28081559	     -0.60901165	      1.27264305	     -2.05076958	     -4.51618676	      0.00000000	      0.00000000	     13.19311390	      0.06944432	      2.08154399	     12.91153678	    -17.25562281	     88.27723478	     33.83191696	     80.55071564	      7.25595653	     11.17323758	      2.37457206	    -20.81413199	     62.83612402	     30.44885535	     85.06463768	      2.56498080	      3.61469714
      3.00000000	     -1.13014543	     -0.91053757	     92.08193496	      0.21328300	      0.79053444	      0.67156383	     -3.86644403	      4.98891241	      3.20530586	      4.41879730	      0.07712256	     14.90391180	    -12.49694423	      0.00000000	     -2.52956920	     -4.58134624	      2.52563065	      2.56652352	      0.04479429	     25.45960611	      3.17119298	      0.00000000	      0.17232066	     -0.21827527	     -0.77335631	      0.32001670	     -0.29030611	     -0.82169108	      0.28310562	     -0.53071450	     -0.82169108	      0.19694529	     -0.53071450	     -0.67668677	      0.16001697	     -0.44510694	     -0.62835200	      0.09846403	     -0.33810840	     -0.58001723	      1.23086926	     -2.46917354	     -4.30117580	      0.00000000	      0.00000000	     12.12573420	     -0.22841088	      0.30243796	     12.74472600	    -16.82784981	     88.11555520	     33.19718639	     78.80693238	      7.22769570	     10.02226170	      0.56574603	    -21.09444253	     57.71272039	     31.60368710	     85.45520773	     -0.47256593	      3.19042456
      3.01694915	     -1.20166727	     -0.98721814	     92.07798777	      0.21393220	      0.79023687	      0.67209577	     -3.95458666	      4.92476168	      2.67906321	      3.92761007	      0.06854973	     15.32046736	    -11.50763843	      0.00000000	     -2.45116463	     -4.52951930	      2.93934744	      2.56793526	      0.04481893	     25.41932770	      2.82329242	      0.00000000	      0.14952397	     -0.24974781	     -0.84831436	      0.27768097	     -0.33216459	     -0.90133400	      0.24565294	     -0.60723683	     -0.90133400	      0.17089095	     -0.60723683	     -0.74227506	      0.13884796	     -0.50928573	     -0.68925541	      0.08543800	     -0.38685936	     -0.63623577	      1.06803479	     -2.82519718	     -4.71806996	      0.00000000	      0.00000000	     11.11558716	      0.37025560	      0.50414024	     13.61559523	    -16.34444193	     90.80047660	     32.85466577	     75.68584259	      7.09030165	      9.29064852	     -1.64937082	    -21.29335715	     50.32544417	     33.55393270	     87.45214732	     -0.13218019	      5.52659389
      3.03389831	     -1.21321460	     -0.93327099	     91.98259087	      0.21453172	      0.79017657	      0.67273825	     -4.08281950	      4.87627319	      1.01202912	      3.60345290	      0.06289212	     16.26230699	     -8.71706309	      0.00000000	     -2.45316134	     -4.54767820	      2.61582980	      2.74409815	      0.04789355	     25.56983975	      3.22933341	      0.00000000	      0.11645655	     -0.27082728	     -0.79652174	      0.21627146	     -0.36020029	     -0.84630435	      0.19132646	     -0.65848946	     -0.84630435	      0.13309819	     -0.65848946	     -0.69695653	      0.10814155	     -0.55227100	     -0.64717392	      0.06654327	     -0.41951146	     -0.59739131	      0.83183749	     -3.06365239	     -4.43001498	      0.00000000	      0.00000000	     10.43823528	      0.64291139	     -0.03639591	     13.77094019	    -16.35239409	     91.33761464	     32.91228644	     72.60447514	      6.60320981	      8.99738881	     -2.00567030	    -21.65288190	     49.34704443	     34.44323057	     87.69886343	     -1.48108982	      5.36777666
      3.05084746	     -1.27136763	     -0.94729047	     91.70087375	      0.21565729	      0.78975287	      0.67285393	     -4.10161327	      4.87708044	      2.15046387	      3.42027060	      0.05969498	     16.26800709	     -9.83662404	      0.00000000	     -2.51944180	     -4.50434134	      2.57409877	      2.80952448	      0.04903545	     25.51746653	      2.69687865	      0.00000000	      0.11322510	     -0.30131363	     -0.79089200	      0.21027033	     -0.40074713	     -0.84032275	      0.18601751	     -0.73261396	     -0.84032275	      0.12940496	     -0.73261396	     -0.69203050	      0.10514082	     -0.61443875	     -0.64259975	      0.06469682	     -0.46673481	     -0.59316900	      0.80875554	     -3.40852004	     -4.39870403	      0.00000000	      0.00000000	     10.01162749	      1.30685628	     -0.09925925	     13.21393091	    -16.25335255	     88.55057942	     32.74536011	     74.10702354	      7.19752666	      8.79204163	     -3.73661447	    -21.71705004	     43.98820228	     35.97483574	     88.02005693	     -0.71699019	      6.87334867
